<mxfile host="app.diagrams.net" agent="Mozilla/5.0 (Windows NT 10.0; Win64; x64) AppleWebKit/537.36 (KHTML, like Gecko) Chrome/134.0.0.0 Safari/537.36" version="26.1.3">
  <diagram name="PÃ¡gina-1" id="lEnupc2vQ5AVQNWuJw1-">
    <mxGraphModel dx="1114" dy="600" grid="1" gridSize="10" guides="1" tooltips="1" connect="1" arrows="1" fold="1" page="1" pageScale="1" pageWidth="827" pageHeight="1169" math="0" shadow="0">
      <root>
        <mxCell id="0" />
        <mxCell id="1" parent="0" />
        <mxCell id="4ZPQLaFZJAPQ746rarUw-6" value="TABLA DE HECHOS" style="rounded=0;whiteSpace=wrap;html=1;" vertex="1" parent="1">
          <mxGeometry x="340" y="180" width="130" height="20" as="geometry" />
        </mxCell>
        <mxCell id="4ZPQLaFZJAPQ746rarUw-7" value="ID_Practica&lt;div&gt;Taller_ID&lt;/div&gt;&lt;div&gt;No. Practica&lt;/div&gt;&lt;div&gt;Nombre_ID&lt;/div&gt;&lt;div&gt;Folio_ID&lt;/div&gt;&lt;div&gt;Fecha_ID&lt;/div&gt;" style="rounded=0;whiteSpace=wrap;html=1;" vertex="1" parent="1">
          <mxGeometry x="340" y="200" width="130" height="120" as="geometry" />
        </mxCell>
      </root>
    </mxGraphModel>
  </diagram>
</mxfile>
